<svg width="25" height="24" viewBox="0 0 25 24" fill="none" xmlns="http://www.w3.org/2000/svg">
<mask id="mask0_171_179" style="mask-type:alpha" maskUnits="userSpaceOnUse" x="0" y="0" width="25" height="24">
<rect x="0.166992" width="24" height="24" fill="#D9D9D9"/>
</mask>
<g mask="url(#mask0_171_179)">
<path d="M6.16699 20C5.33366 20 4.62533 19.7083 4.04199 19.125C3.45866 18.5417 3.16699 17.8333 3.16699 17H1.16699V6C1.16699 5.45 1.36283 4.97917 1.75449 4.5875C2.14616 4.19583 2.61699 4 3.16699 4H17.167V8H20.167L23.167 12V17H21.167C21.167 17.8333 20.8753 18.5417 20.292 19.125C19.7087 19.7083 19.0003 20 18.167 20C17.3337 20 16.6253 19.7083 16.042 19.125C15.4587 18.5417 15.167 17.8333 15.167 17H9.16699C9.16699 17.8333 8.87533 18.5417 8.29199 19.125C7.70866 19.7083 7.00033 20 6.16699 20ZM6.16699 18C6.45033 18 6.68783 17.9042 6.87949 17.7125C7.07116 17.5208 7.16699 17.2833 7.16699 17C7.16699 16.7167 7.07116 16.4792 6.87949 16.2875C6.68783 16.0958 6.45033 16 6.16699 16C5.88366 16 5.64616 16.0958 5.45449 16.2875C5.26283 16.4792 5.16699 16.7167 5.16699 17C5.16699 17.2833 5.26283 17.5208 5.45449 17.7125C5.64616 17.9042 5.88366 18 6.16699 18ZM3.16699 15H3.96699C4.25033 14.7 4.57533 14.4583 4.94199 14.275C5.30866 14.0917 5.71699 14 6.16699 14C6.61699 14 7.02533 14.0917 7.39199 14.275C7.75866 14.4583 8.08366 14.7 8.36699 15H15.167V6H3.16699V15ZM18.167 18C18.4503 18 18.6878 17.9042 18.8795 17.7125C19.0712 17.5208 19.167 17.2833 19.167 17C19.167 16.7167 19.0712 16.4792 18.8795 16.2875C18.6878 16.0958 18.4503 16 18.167 16C17.8837 16 17.6462 16.0958 17.4545 16.2875C17.2628 16.4792 17.167 16.7167 17.167 17C17.167 17.2833 17.2628 17.5208 17.4545 17.7125C17.6462 17.9042 17.8837 18 18.167 18ZM17.167 13H21.417L19.167 10H17.167V13Z" fill="#282828"/>
</g>
</svg>
