<svg width="32" height="32" viewBox="0 0 32 32" fill="none" xmlns="http://www.w3.org/2000/svg">
<mask id="mask0_1087_999" style="mask-type:alpha" maskUnits="userSpaceOnUse" x="0" y="0" width="32" height="32">
<rect width="32" height="32" fill="#D9D9D9"/>
</mask>
<g mask="url(#mask0_1087_999)">
<path d="M6.66667 29.3333C5.93333 29.3333 5.30533 29.0724 4.78267 28.5506C4.26089 28.028 4 27.4 4 26.6666V10.6666C4 9.93331 4.26089 9.30576 4.78267 8.78398C5.30533 8.26131 5.93333 7.99998 6.66667 7.99998H9.33333C9.33333 6.15554 9.98356 4.58309 11.284 3.28265C12.5836 1.98309 14.1556 1.33331 16 1.33331C17.8444 1.33331 19.4169 1.98309 20.7173 3.28265C22.0169 4.58309 22.6667 6.15554 22.6667 7.99998H25.3333C26.0667 7.99998 26.6947 8.26131 27.2173 8.78398C27.7391 9.30576 28 9.93331 28 10.6666V26.6666C28 27.4 27.7391 28.028 27.2173 28.5506C26.6947 29.0724 26.0667 29.3333 25.3333 29.3333H6.66667ZM6.66667 26.6666H25.3333V10.6666H6.66667V26.6666ZM16 18.6666C17.8444 18.6666 19.4169 18.0164 20.7173 16.716C22.0169 15.4164 22.6667 13.8444 22.6667 12H20C20 13.1111 19.6111 14.0555 18.8333 14.8333C18.0556 15.6111 17.1111 16 16 16C14.8889 16 13.9444 15.6111 13.1667 14.8333C12.3889 14.0555 12 13.1111 12 12H9.33333C9.33333 13.8444 9.98356 15.4164 11.284 16.716C12.5836 18.0164 14.1556 18.6666 16 18.6666ZM12 7.99998H20C20 6.88887 19.6111 5.94442 18.8333 5.16665C18.0556 4.38887 17.1111 3.99998 16 3.99998C14.8889 3.99998 13.9444 4.38887 13.1667 5.16665C12.3889 5.94442 12 6.88887 12 7.99998Z" fill="#282828"/>
</g>
</svg>
