<svg width="32" height="32" viewBox="0 0 32 32" fill="none" xmlns="http://www.w3.org/2000/svg">
<mask id="mask0_1087_998" style="mask-type:alpha" maskUnits="userSpaceOnUse" x="0" y="0" width="32" height="32">
<rect width="32" height="32" fill="#D9D9D9"/>
</mask>
<g mask="url(#mask0_1087_998)">
<path d="M15.9997 16C14.533 16 13.2775 15.4778 12.233 14.4333C11.1886 13.3889 10.6663 12.1333 10.6663 10.6666C10.6663 9.19998 11.1886 7.94442 12.233 6.89998C13.2775 5.85554 14.533 5.33331 15.9997 5.33331C17.4663 5.33331 18.7219 5.85554 19.7663 6.89998C20.8108 7.94442 21.333 9.19998 21.333 10.6666C21.333 12.1333 20.8108 13.3889 19.7663 14.4333C18.7219 15.4778 17.4663 16 15.9997 16ZM5.33301 26.6666V22.9333C5.33301 22.1778 5.52767 21.4831 5.91701 20.8493C6.30545 20.2164 6.8219 19.7333 7.46634 19.4C8.84412 18.7111 10.2441 18.1942 11.6663 17.8493C13.0886 17.5053 14.533 17.3333 15.9997 17.3333C17.4663 17.3333 18.9108 17.5053 20.333 17.8493C21.7552 18.1942 23.1552 18.7111 24.533 19.4C25.1775 19.7333 25.6939 20.2164 26.0823 20.8493C26.4717 21.4831 26.6663 22.1778 26.6663 22.9333V26.6666H5.33301ZM7.99967 24H23.9997V22.9333C23.9997 22.6889 23.9388 22.4666 23.817 22.2666C23.6943 22.0666 23.533 21.9111 23.333 21.8C22.133 21.2 20.9219 20.7498 19.6997 20.4493C18.4775 20.1498 17.2441 20 15.9997 20C14.7552 20 13.5219 20.1498 12.2997 20.4493C11.0775 20.7498 9.86634 21.2 8.66634 21.8C8.46634 21.9111 8.30545 22.0666 8.18367 22.2666C8.06101 22.4666 7.99967 22.6889 7.99967 22.9333V24ZM15.9997 13.3333C16.733 13.3333 17.361 13.072 17.8837 12.5493C18.4055 12.0275 18.6663 11.4 18.6663 10.6666C18.6663 9.93331 18.4055 9.30576 17.8837 8.78398C17.361 8.26131 16.733 7.99998 15.9997 7.99998C15.2663 7.99998 14.6388 8.26131 14.117 8.78398C13.5943 9.30576 13.333 9.93331 13.333 10.6666C13.333 11.4 13.5943 12.0275 14.117 12.5493C14.6388 13.072 15.2663 13.3333 15.9997 13.3333Z" fill="black"/>
</g>
</svg>
